<svg xmlns="http://www.w3.org/2000/svg" viewBox="0 0 1600 700" preserveAspectRatio="xMidYMax slice"><defs><linearGradient id="sky" x1="0" y1="0" x2="0" y2="1"><stop offset="0" stop-color="#d9eefa"/><stop offset="0.7" stop-color="#eaf6f6"/><stop offset="1" stop-color="#f3faf8"/></linearGradient><linearGradient id="far" x1="0" y1="0" x2="0" y2="1"><stop offset="0" stop-color="#b7d9ec"/><stop offset="1" stop-color="#d6ebf2"/></linearGradient><linearGradient id="near" x1="0" y1="0" x2="0" y2="1"><stop offset="0" stop-color="#9fcbe2"/><stop offset="1" stop-color="#cfe6ee"/></linearGradient><linearGradient id="tree" x1="0" y1="0" x2="0" y2="1"><stop offset="0" stop-color="#a8d8c4"/><stop offset="1" stop-color="#d7eee3"/></linearGradient></defs><rect width="1600" height="700" fill="url(#sky)"/><g fill="url(#far)" opacity="0.7"><rect x="0" y="382" width="75" height="318" rx="3"/><rect x="81" y="254" width="84" height="446" rx="3"/><rect x="171" y="402" width="40" height="298" rx="3"/><rect x="217" y="396" width="102" height="304" rx="3"/><rect x="325" y="271" width="80" height="429" rx="3"/><rect x="411" y="291" width="41" height="409" rx="3"/><rect x="458" y="411" width="61" height="289" rx="3"/><rect x="525" y="309" width="45" height="391" rx="3"/><rect x="576" y="403" width="87" height="297" rx="3"/><rect x="669" y="397" width="64" height="303" rx="3"/><rect x="739" y="312" width="104" height="388" rx="3"/><rect x="849" y="209" width="41" height="491" rx="3"/><rect x="896" y="363" width="49" height="337" rx="3"/><rect x="951" y="273" width="41" height="427" rx="3"/><rect x="998" y="408" width="84" height="292" rx="3"/><rect x="1088" y="409" width="62" height="291" rx="3"/><rect x="1156" y="346" width="51" height="354" rx="3"/><rect x="1213" y="384" width="87" height="316" rx="3"/><rect x="1306" y="390" width="103" height="310" rx="3"/><rect x="1415" y="277" width="73" height="423" rx="3"/><rect x="1494" y="394" width="57" height="306" rx="3"/><rect x="1557" y="325" width="58" height="375" rx="3"/></g><g fill="url(#near)" opacity="0.75"><rect x="0" y="390" width="54" height="310" rx="4"/><rect x="62" y="386" width="50" height="314" rx="4"/><rect x="120" y="372" width="49" height="328" rx="4"/><rect x="177" y="403" width="68" height="297" rx="4"/><rect x="253" y="421" width="110" height="279" rx="4"/><rect x="371" y="411" width="82" height="289" rx="4"/><rect x="461" y="414" width="116" height="286" rx="4"/><rect x="1083" y="416" width="85" height="284" rx="4"/><rect x="1176" y="375" width="78" height="325" rx="4"/><rect x="1262" y="500" width="51" height="200" rx="4"/><rect x="1321" y="423" width="107" height="277" rx="4"/><rect x="1436" y="443" width="63" height="257" rx="4"/><rect x="1507" y="405" width="61" height="295" rx="4"/><rect x="1576" y="520" width="95" height="180" rx="4"/></g><g fill="#c3dfec" opacity="0.95"><rect x="540" y="470" width="520" height="230"/><rect x="500" y="510" width="600" height="190"/><rect x="710" y="370" width="180" height="110"/><polygon points="710,370 800,280 890,370"/><rect x="786" y="250" width="28" height="40"/></g><g fill="#e7f3f8" opacity="0.9"><rect x="560" y="490" width="14" height="150" rx="3"/><rect x="600" y="490" width="14" height="150" rx="3"/><rect x="640" y="490" width="14" height="150" rx="3"/><rect x="680" y="490" width="14" height="150" rx="3"/><rect x="720" y="490" width="14" height="150" rx="3"/><rect x="760" y="490" width="14" height="150" rx="3"/><rect x="800" y="490" width="14" height="150" rx="3"/><rect x="840" y="490" width="14" height="150" rx="3"/><rect x="880" y="490" width="14" height="150" rx="3"/><rect x="920" y="490" width="14" height="150" rx="3"/><rect x="960" y="490" width="14" height="150" rx="3"/><rect x="1000" y="490" width="14" height="150" rx="3"/><rect x="1040" y="490" width="14" height="150" rx="3"/><rect x="730" y="385" width="10" height="80" rx="3"/><rect x="758" y="385" width="10" height="80" rx="3"/><rect x="786" y="385" width="10" height="80" rx="3"/><rect x="814" y="385" width="10" height="80" rx="3"/><rect x="842" y="385" width="10" height="80" rx="3"/><rect x="870" y="385" width="10" height="80" rx="3"/></g><g fill="url(#tree)" opacity="0.85"><circle cx="-40" cy="670" r="44"/><circle cx="45" cy="670" r="76"/><circle cx="115" cy="670" r="61"/><circle cx="187" cy="670" r="78"/><circle cx="268" cy="670" r="77"/><circle cx="347" cy="670" r="44"/><circle cx="402" cy="670" r="57"/><circle cx="482" cy="670" r="44"/><circle cx="535" cy="670" r="59"/><circle cx="621" cy="670" r="68"/><circle cx="689" cy="670" r="64"/><circle cx="761" cy="670" r="41"/><circle cx="840" cy="670" r="62"/><circle cx="900" cy="670" r="79"/><circle cx="957" cy="670" r="71"/><circle cx="1010" cy="670" r="53"/><circle cx="1078" cy="670" r="48"/><circle cx="1143" cy="670" r="65"/><circle cx="1218" cy="670" r="71"/><circle cx="1273" cy="670" r="50"/><circle cx="1351" cy="670" r="65"/><circle cx="1436" cy="670" r="57"/><circle cx="1494" cy="670" r="67"/><circle cx="1579" cy="670" r="57"/></g></svg>